<mxfile host="app.diagrams.net" modified="2023-01-18T19:26:26.848Z" agent="5.0 (Windows NT 10.0; Win64; x64) AppleWebKit/537.36 (KHTML, like Gecko) Chrome/109.0.0.0 Safari/537.36" version="20.8.5" etag="yU_V87gK1iTPj4eTbm_D" type="github" pages="5">
  <diagram id="SqqR4jc-Y2WNet7MNunw" name="finished">
    <mxGraphModel dx="2950" dy="3316" grid="1" gridSize="10" guides="1" tooltips="1" connect="1" arrows="1" fold="1" page="1" pageScale="1" pageWidth="850" pageHeight="1100" math="0" shadow="0">
      <root>
        <mxCell id="0" />
        <mxCell id="1" parent="0" />
        <mxCell id="NJr3L0LB8Xf3tpoxmhNc-1" style="edgeStyle=orthogonalEdgeStyle;rounded=0;orthogonalLoop=1;jettySize=auto;html=1;exitX=0;exitY=1;exitDx=0;exitDy=0;entryX=1;entryY=0.5;entryDx=0;entryDy=0;fontFamily=Helvetica;" edge="1" parent="1" source="NJr3L0LB8Xf3tpoxmhNc-8" target="NJr3L0LB8Xf3tpoxmhNc-9">
          <mxGeometry relative="1" as="geometry" />
        </mxCell>
        <mxCell id="NJr3L0LB8Xf3tpoxmhNc-2" style="edgeStyle=orthogonalEdgeStyle;rounded=0;orthogonalLoop=1;jettySize=auto;html=1;exitX=0;exitY=0.25;exitDx=0;exitDy=0;entryX=1;entryY=1;entryDx=0;entryDy=0;fontFamily=Helvetica;" edge="1" parent="1" source="NJr3L0LB8Xf3tpoxmhNc-8" target="NJr3L0LB8Xf3tpoxmhNc-10">
          <mxGeometry relative="1" as="geometry" />
        </mxCell>
        <mxCell id="NJr3L0LB8Xf3tpoxmhNc-3" style="edgeStyle=orthogonalEdgeStyle;rounded=0;orthogonalLoop=1;jettySize=auto;html=1;exitX=0.25;exitY=0;exitDx=0;exitDy=0;entryX=1;entryY=1;entryDx=0;entryDy=0;fontFamily=Helvetica;" edge="1" parent="1" source="NJr3L0LB8Xf3tpoxmhNc-8" target="NJr3L0LB8Xf3tpoxmhNc-11">
          <mxGeometry relative="1" as="geometry" />
        </mxCell>
        <mxCell id="NJr3L0LB8Xf3tpoxmhNc-4" style="edgeStyle=orthogonalEdgeStyle;rounded=0;orthogonalLoop=1;jettySize=auto;html=1;exitX=0.75;exitY=0;exitDx=0;exitDy=0;entryX=0.315;entryY=1.043;entryDx=0;entryDy=0;entryPerimeter=0;fontFamily=Helvetica;" edge="1" parent="1" source="NJr3L0LB8Xf3tpoxmhNc-8" target="NJr3L0LB8Xf3tpoxmhNc-12">
          <mxGeometry relative="1" as="geometry" />
        </mxCell>
        <mxCell id="NJr3L0LB8Xf3tpoxmhNc-5" style="edgeStyle=orthogonalEdgeStyle;rounded=0;orthogonalLoop=1;jettySize=auto;html=1;exitX=1;exitY=0.5;exitDx=0;exitDy=0;entryX=0;entryY=1;entryDx=0;entryDy=0;fontFamily=Helvetica;" edge="1" parent="1" source="NJr3L0LB8Xf3tpoxmhNc-8" target="NJr3L0LB8Xf3tpoxmhNc-13">
          <mxGeometry relative="1" as="geometry" />
        </mxCell>
        <mxCell id="NJr3L0LB8Xf3tpoxmhNc-6" style="edgeStyle=orthogonalEdgeStyle;rounded=0;orthogonalLoop=1;jettySize=auto;html=1;exitX=1;exitY=1;exitDx=0;exitDy=0;entryX=0;entryY=0.5;entryDx=0;entryDy=0;fontFamily=Helvetica;" edge="1" parent="1" source="NJr3L0LB8Xf3tpoxmhNc-8" target="NJr3L0LB8Xf3tpoxmhNc-15">
          <mxGeometry relative="1" as="geometry" />
        </mxCell>
        <mxCell id="NJr3L0LB8Xf3tpoxmhNc-7" style="edgeStyle=orthogonalEdgeStyle;rounded=0;orthogonalLoop=1;jettySize=auto;html=1;exitX=0.5;exitY=1;exitDx=0;exitDy=0;entryX=0.5;entryY=0;entryDx=0;entryDy=0;fontFamily=Helvetica;" edge="1" parent="1" source="NJr3L0LB8Xf3tpoxmhNc-8" target="NJr3L0LB8Xf3tpoxmhNc-31">
          <mxGeometry relative="1" as="geometry" />
        </mxCell>
        <mxCell id="NJr3L0LB8Xf3tpoxmhNc-8" value="patient" style="whiteSpace=wrap;html=1;align=center;fontFamily=Helvetica;" vertex="1" parent="1">
          <mxGeometry x="-265" y="-1010" width="90" height="40" as="geometry" />
        </mxCell>
        <mxCell id="NJr3L0LB8Xf3tpoxmhNc-9" value="Age" style="ellipse;whiteSpace=wrap;html=1;align=center;fontFamily=Helvetica;" vertex="1" parent="1">
          <mxGeometry x="-380" y="-990" width="100" height="40" as="geometry" />
        </mxCell>
        <mxCell id="NJr3L0LB8Xf3tpoxmhNc-10" value="Name" style="ellipse;whiteSpace=wrap;html=1;align=center;fontFamily=Helvetica;" vertex="1" parent="1">
          <mxGeometry x="-370" y="-1040" width="100" height="40" as="geometry" />
        </mxCell>
        <mxCell id="NJr3L0LB8Xf3tpoxmhNc-11" value="Patient_ID" style="ellipse;whiteSpace=wrap;html=1;align=center;fontStyle=4;fontFamily=Helvetica;" vertex="1" parent="1">
          <mxGeometry x="-330" y="-1090" width="100" height="40" as="geometry" />
        </mxCell>
        <mxCell id="NJr3L0LB8Xf3tpoxmhNc-12" value="Gender" style="ellipse;whiteSpace=wrap;html=1;align=center;fontFamily=Helvetica;" vertex="1" parent="1">
          <mxGeometry x="-220" y="-1080" width="100" height="40" as="geometry" />
        </mxCell>
        <mxCell id="NJr3L0LB8Xf3tpoxmhNc-13" value="Disease" style="ellipse;whiteSpace=wrap;html=1;align=center;fontFamily=Helvetica;" vertex="1" parent="1">
          <mxGeometry x="-170" y="-1040" width="100" height="40" as="geometry" />
        </mxCell>
        <mxCell id="NJr3L0LB8Xf3tpoxmhNc-14" style="edgeStyle=orthogonalEdgeStyle;rounded=0;orthogonalLoop=1;jettySize=auto;html=1;exitX=1;exitY=0.5;exitDx=0;exitDy=0;entryX=0;entryY=0.5;entryDx=0;entryDy=0;fontFamily=Helvetica;" edge="1" parent="1" source="NJr3L0LB8Xf3tpoxmhNc-15" target="NJr3L0LB8Xf3tpoxmhNc-24">
          <mxGeometry relative="1" as="geometry" />
        </mxCell>
        <mxCell id="NJr3L0LB8Xf3tpoxmhNc-15" value="Check" style="shape=rhombus;perimeter=rhombusPerimeter;whiteSpace=wrap;html=1;align=center;fontFamily=Helvetica;" vertex="1" parent="1">
          <mxGeometry x="300" y="-1070" width="120" height="60" as="geometry" />
        </mxCell>
        <mxCell id="NJr3L0LB8Xf3tpoxmhNc-16" style="edgeStyle=orthogonalEdgeStyle;rounded=0;orthogonalLoop=1;jettySize=auto;html=1;exitX=0.5;exitY=0;exitDx=0;exitDy=0;entryX=0.5;entryY=1;entryDx=0;entryDy=0;fontFamily=Helvetica;" edge="1" parent="1" source="NJr3L0LB8Xf3tpoxmhNc-24" target="NJr3L0LB8Xf3tpoxmhNc-25">
          <mxGeometry relative="1" as="geometry" />
        </mxCell>
        <mxCell id="NJr3L0LB8Xf3tpoxmhNc-17" style="edgeStyle=orthogonalEdgeStyle;rounded=0;orthogonalLoop=1;jettySize=auto;html=1;exitX=0.75;exitY=0;exitDx=0;exitDy=0;entryX=0;entryY=0.5;entryDx=0;entryDy=0;fontFamily=Helvetica;" edge="1" parent="1" source="NJr3L0LB8Xf3tpoxmhNc-24" target="NJr3L0LB8Xf3tpoxmhNc-26">
          <mxGeometry relative="1" as="geometry" />
        </mxCell>
        <mxCell id="NJr3L0LB8Xf3tpoxmhNc-18" style="edgeStyle=orthogonalEdgeStyle;rounded=0;orthogonalLoop=1;jettySize=auto;html=1;exitX=1;exitY=0;exitDx=0;exitDy=0;entryX=0;entryY=0.5;entryDx=0;entryDy=0;fontFamily=Helvetica;" edge="1" parent="1" source="NJr3L0LB8Xf3tpoxmhNc-24" target="NJr3L0LB8Xf3tpoxmhNc-27">
          <mxGeometry relative="1" as="geometry" />
        </mxCell>
        <mxCell id="NJr3L0LB8Xf3tpoxmhNc-19" style="edgeStyle=orthogonalEdgeStyle;rounded=0;orthogonalLoop=1;jettySize=auto;html=1;exitX=1;exitY=0.5;exitDx=0;exitDy=0;entryX=0;entryY=0;entryDx=0;entryDy=0;fontFamily=Helvetica;" edge="1" parent="1" source="NJr3L0LB8Xf3tpoxmhNc-24" target="NJr3L0LB8Xf3tpoxmhNc-28">
          <mxGeometry relative="1" as="geometry" />
        </mxCell>
        <mxCell id="NJr3L0LB8Xf3tpoxmhNc-20" style="edgeStyle=orthogonalEdgeStyle;rounded=0;orthogonalLoop=1;jettySize=auto;html=1;exitX=1;exitY=1;exitDx=0;exitDy=0;entryX=0.039;entryY=0.191;entryDx=0;entryDy=0;entryPerimeter=0;fontFamily=Helvetica;" edge="1" parent="1" source="NJr3L0LB8Xf3tpoxmhNc-24" target="NJr3L0LB8Xf3tpoxmhNc-29">
          <mxGeometry relative="1" as="geometry" />
        </mxCell>
        <mxCell id="NJr3L0LB8Xf3tpoxmhNc-21" style="edgeStyle=orthogonalEdgeStyle;rounded=0;orthogonalLoop=1;jettySize=auto;html=1;exitX=0.5;exitY=1;exitDx=0;exitDy=0;entryX=0.5;entryY=0;entryDx=0;entryDy=0;fontFamily=Helvetica;" edge="1" parent="1" source="NJr3L0LB8Xf3tpoxmhNc-24" target="NJr3L0LB8Xf3tpoxmhNc-50">
          <mxGeometry relative="1" as="geometry" />
        </mxCell>
        <mxCell id="NJr3L0LB8Xf3tpoxmhNc-22" style="edgeStyle=orthogonalEdgeStyle;rounded=0;orthogonalLoop=1;jettySize=auto;html=1;exitX=0;exitY=1;exitDx=0;exitDy=0;entryX=1;entryY=0;entryDx=0;entryDy=0;fontFamily=Helvetica;" edge="1" parent="1" source="NJr3L0LB8Xf3tpoxmhNc-24" target="NJr3L0LB8Xf3tpoxmhNc-83">
          <mxGeometry relative="1" as="geometry" />
        </mxCell>
        <mxCell id="NJr3L0LB8Xf3tpoxmhNc-23" style="edgeStyle=orthogonalEdgeStyle;rounded=0;orthogonalLoop=1;jettySize=auto;html=1;exitX=0.25;exitY=1;exitDx=0;exitDy=0;entryX=1;entryY=0.5;entryDx=0;entryDy=0;fontFamily=Helvetica;" edge="1" parent="1" source="NJr3L0LB8Xf3tpoxmhNc-24" target="NJr3L0LB8Xf3tpoxmhNc-106">
          <mxGeometry relative="1" as="geometry" />
        </mxCell>
        <mxCell id="NJr3L0LB8Xf3tpoxmhNc-24" value="Dcotor" style="whiteSpace=wrap;html=1;align=center;fontFamily=Helvetica;" vertex="1" parent="1">
          <mxGeometry x="705" y="-1060" width="100" height="40" as="geometry" />
        </mxCell>
        <mxCell id="NJr3L0LB8Xf3tpoxmhNc-25" value="Name" style="ellipse;whiteSpace=wrap;html=1;align=center;fontFamily=Helvetica;" vertex="1" parent="1">
          <mxGeometry x="685" y="-1140" width="100" height="40" as="geometry" />
        </mxCell>
        <mxCell id="NJr3L0LB8Xf3tpoxmhNc-26" value="Gender" style="ellipse;whiteSpace=wrap;html=1;align=center;fontFamily=Helvetica;" vertex="1" parent="1">
          <mxGeometry x="825" y="-1140" width="100" height="40" as="geometry" />
        </mxCell>
        <mxCell id="NJr3L0LB8Xf3tpoxmhNc-27" value="Age" style="ellipse;whiteSpace=wrap;html=1;align=center;fontFamily=Helvetica;" vertex="1" parent="1">
          <mxGeometry x="825" y="-1090" width="100" height="40" as="geometry" />
        </mxCell>
        <mxCell id="NJr3L0LB8Xf3tpoxmhNc-28" value="Specialist" style="ellipse;whiteSpace=wrap;html=1;align=center;fontFamily=Helvetica;" vertex="1" parent="1">
          <mxGeometry x="825" y="-1040" width="100" height="40" as="geometry" />
        </mxCell>
        <mxCell id="NJr3L0LB8Xf3tpoxmhNc-29" value="Employee_ID" style="ellipse;whiteSpace=wrap;html=1;align=center;fontStyle=4;fontFamily=Helvetica;" vertex="1" parent="1">
          <mxGeometry x="825" y="-990" width="100" height="40" as="geometry" />
        </mxCell>
        <mxCell id="NJr3L0LB8Xf3tpoxmhNc-30" style="edgeStyle=orthogonalEdgeStyle;rounded=0;orthogonalLoop=1;jettySize=auto;html=1;exitX=0.5;exitY=1;exitDx=0;exitDy=0;entryX=0.5;entryY=0;entryDx=0;entryDy=0;fontFamily=Helvetica;" edge="1" parent="1" source="NJr3L0LB8Xf3tpoxmhNc-31" target="NJr3L0LB8Xf3tpoxmhNc-36">
          <mxGeometry relative="1" as="geometry" />
        </mxCell>
        <mxCell id="NJr3L0LB8Xf3tpoxmhNc-31" value="Registration" style="shape=rhombus;perimeter=rhombusPerimeter;whiteSpace=wrap;html=1;align=center;fontFamily=Helvetica;" vertex="1" parent="1">
          <mxGeometry x="-280" y="-520" width="120" height="60" as="geometry" />
        </mxCell>
        <mxCell id="NJr3L0LB8Xf3tpoxmhNc-32" style="edgeStyle=orthogonalEdgeStyle;rounded=0;orthogonalLoop=1;jettySize=auto;html=1;exitX=0.25;exitY=1;exitDx=0;exitDy=0;entryX=1;entryY=0;entryDx=0;entryDy=0;fontFamily=Helvetica;" edge="1" parent="1" source="NJr3L0LB8Xf3tpoxmhNc-36" target="NJr3L0LB8Xf3tpoxmhNc-39">
          <mxGeometry relative="1" as="geometry" />
        </mxCell>
        <mxCell id="NJr3L0LB8Xf3tpoxmhNc-33" style="edgeStyle=orthogonalEdgeStyle;rounded=0;orthogonalLoop=1;jettySize=auto;html=1;exitX=0;exitY=0.5;exitDx=0;exitDy=0;entryX=1;entryY=0.5;entryDx=0;entryDy=0;fontFamily=Helvetica;" edge="1" parent="1" source="NJr3L0LB8Xf3tpoxmhNc-36" target="NJr3L0LB8Xf3tpoxmhNc-37">
          <mxGeometry relative="1" as="geometry" />
        </mxCell>
        <mxCell id="NJr3L0LB8Xf3tpoxmhNc-34" style="edgeStyle=orthogonalEdgeStyle;rounded=0;orthogonalLoop=1;jettySize=auto;html=1;exitX=0;exitY=0;exitDx=0;exitDy=0;entryX=1;entryY=1;entryDx=0;entryDy=0;fontFamily=Helvetica;" edge="1" parent="1" source="NJr3L0LB8Xf3tpoxmhNc-36" target="NJr3L0LB8Xf3tpoxmhNc-38">
          <mxGeometry relative="1" as="geometry" />
        </mxCell>
        <mxCell id="NJr3L0LB8Xf3tpoxmhNc-35" style="edgeStyle=orthogonalEdgeStyle;rounded=0;orthogonalLoop=1;jettySize=auto;html=1;exitX=1;exitY=0.5;exitDx=0;exitDy=0;entryX=0;entryY=0.5;entryDx=0;entryDy=0;fontFamily=Helvetica;" edge="1" parent="1" source="NJr3L0LB8Xf3tpoxmhNc-36" target="NJr3L0LB8Xf3tpoxmhNc-41">
          <mxGeometry relative="1" as="geometry" />
        </mxCell>
        <mxCell id="NJr3L0LB8Xf3tpoxmhNc-36" value="Registration" style="whiteSpace=wrap;html=1;align=center;fontFamily=Helvetica;" vertex="1" parent="1">
          <mxGeometry x="-225" y="-410" width="90" height="40" as="geometry" />
        </mxCell>
        <mxCell id="NJr3L0LB8Xf3tpoxmhNc-37" value="ID" style="ellipse;whiteSpace=wrap;html=1;align=center;fontStyle=4;fontFamily=Helvetica;" vertex="1" parent="1">
          <mxGeometry x="-380" y="-410" width="100" height="40" as="geometry" />
        </mxCell>
        <mxCell id="NJr3L0LB8Xf3tpoxmhNc-38" value="date" style="ellipse;whiteSpace=wrap;html=1;align=center;fontFamily=Helvetica;" vertex="1" parent="1">
          <mxGeometry x="-380" y="-460" width="100" height="40" as="geometry" />
        </mxCell>
        <mxCell id="NJr3L0LB8Xf3tpoxmhNc-39" value="Age" style="ellipse;whiteSpace=wrap;html=1;align=center;fontFamily=Helvetica;" vertex="1" parent="1">
          <mxGeometry x="-340" y="-360" width="100" height="40" as="geometry" />
        </mxCell>
        <mxCell id="NJr3L0LB8Xf3tpoxmhNc-40" style="edgeStyle=orthogonalEdgeStyle;rounded=0;orthogonalLoop=1;jettySize=auto;html=1;exitX=1;exitY=0.5;exitDx=0;exitDy=0;entryX=0;entryY=0.5;entryDx=0;entryDy=0;fontFamily=Helvetica;" edge="1" parent="1" source="NJr3L0LB8Xf3tpoxmhNc-41" target="NJr3L0LB8Xf3tpoxmhNc-48">
          <mxGeometry relative="1" as="geometry" />
        </mxCell>
        <mxCell id="NJr3L0LB8Xf3tpoxmhNc-41" value="set up" style="shape=rhombus;perimeter=rhombusPerimeter;whiteSpace=wrap;html=1;align=center;fontFamily=Helvetica;" vertex="1" parent="1">
          <mxGeometry x="230" y="-420" width="120" height="60" as="geometry" />
        </mxCell>
        <mxCell id="NJr3L0LB8Xf3tpoxmhNc-42" style="edgeStyle=orthogonalEdgeStyle;rounded=0;orthogonalLoop=1;jettySize=auto;html=1;exitX=0;exitY=0;exitDx=0;exitDy=0;entryX=0.686;entryY=1.062;entryDx=0;entryDy=0;entryPerimeter=0;fontFamily=Helvetica;" edge="1" parent="1" source="NJr3L0LB8Xf3tpoxmhNc-48" target="NJr3L0LB8Xf3tpoxmhNc-55">
          <mxGeometry relative="1" as="geometry" />
        </mxCell>
        <mxCell id="NJr3L0LB8Xf3tpoxmhNc-43" style="edgeStyle=orthogonalEdgeStyle;rounded=0;orthogonalLoop=1;jettySize=auto;html=1;exitX=0.75;exitY=0;exitDx=0;exitDy=0;entryX=0;entryY=0.5;entryDx=0;entryDy=0;fontFamily=Helvetica;" edge="1" parent="1" source="NJr3L0LB8Xf3tpoxmhNc-48" target="NJr3L0LB8Xf3tpoxmhNc-54">
          <mxGeometry relative="1" as="geometry" />
        </mxCell>
        <mxCell id="NJr3L0LB8Xf3tpoxmhNc-44" style="edgeStyle=orthogonalEdgeStyle;rounded=0;orthogonalLoop=1;jettySize=auto;html=1;exitX=1;exitY=0;exitDx=0;exitDy=0;entryX=0.074;entryY=0.23;entryDx=0;entryDy=0;entryPerimeter=0;fontFamily=Helvetica;" edge="1" parent="1" source="NJr3L0LB8Xf3tpoxmhNc-48" target="NJr3L0LB8Xf3tpoxmhNc-53">
          <mxGeometry relative="1" as="geometry" />
        </mxCell>
        <mxCell id="NJr3L0LB8Xf3tpoxmhNc-45" style="edgeStyle=orthogonalEdgeStyle;rounded=0;orthogonalLoop=1;jettySize=auto;html=1;exitX=1;exitY=1;exitDx=0;exitDy=0;entryX=0.007;entryY=0.328;entryDx=0;entryDy=0;entryPerimeter=0;fontFamily=Helvetica;" edge="1" parent="1" source="NJr3L0LB8Xf3tpoxmhNc-48" target="NJr3L0LB8Xf3tpoxmhNc-52">
          <mxGeometry relative="1" as="geometry" />
        </mxCell>
        <mxCell id="NJr3L0LB8Xf3tpoxmhNc-46" style="edgeStyle=orthogonalEdgeStyle;rounded=0;orthogonalLoop=1;jettySize=auto;html=1;exitX=0.75;exitY=1;exitDx=0;exitDy=0;entryX=0;entryY=0.25;entryDx=0;entryDy=0;entryPerimeter=0;fontFamily=Helvetica;" edge="1" parent="1" source="NJr3L0LB8Xf3tpoxmhNc-48" target="NJr3L0LB8Xf3tpoxmhNc-51">
          <mxGeometry relative="1" as="geometry" />
        </mxCell>
        <mxCell id="NJr3L0LB8Xf3tpoxmhNc-47" style="edgeStyle=orthogonalEdgeStyle;rounded=0;orthogonalLoop=1;jettySize=auto;html=1;exitX=0.5;exitY=1;exitDx=0;exitDy=0;entryX=0.5;entryY=0;entryDx=0;entryDy=0;fontFamily=Helvetica;" edge="1" parent="1" source="NJr3L0LB8Xf3tpoxmhNc-48" target="NJr3L0LB8Xf3tpoxmhNc-56">
          <mxGeometry relative="1" as="geometry" />
        </mxCell>
        <mxCell id="NJr3L0LB8Xf3tpoxmhNc-48" value="Medical Record" style="whiteSpace=wrap;html=1;align=center;fontFamily=Helvetica;" vertex="1" parent="1">
          <mxGeometry x="715" y="-410" width="90" height="40" as="geometry" />
        </mxCell>
        <mxCell id="NJr3L0LB8Xf3tpoxmhNc-49" style="edgeStyle=orthogonalEdgeStyle;rounded=0;orthogonalLoop=1;jettySize=auto;html=1;exitX=0.5;exitY=1;exitDx=0;exitDy=0;entryX=0.5;entryY=0;entryDx=0;entryDy=0;fontFamily=Helvetica;" edge="1" parent="1" source="NJr3L0LB8Xf3tpoxmhNc-50" target="NJr3L0LB8Xf3tpoxmhNc-48">
          <mxGeometry relative="1" as="geometry" />
        </mxCell>
        <mxCell id="NJr3L0LB8Xf3tpoxmhNc-50" value="fill in" style="shape=rhombus;perimeter=rhombusPerimeter;whiteSpace=wrap;html=1;align=center;fontFamily=Helvetica;" vertex="1" parent="1">
          <mxGeometry x="695" y="-540" width="120" height="60" as="geometry" />
        </mxCell>
        <mxCell id="NJr3L0LB8Xf3tpoxmhNc-51" value="Date" style="ellipse;whiteSpace=wrap;html=1;align=center;fontFamily=Helvetica;" vertex="1" parent="1">
          <mxGeometry x="845" y="-320" width="100" height="40" as="geometry" />
        </mxCell>
        <mxCell id="NJr3L0LB8Xf3tpoxmhNc-52" value="Reference" style="ellipse;whiteSpace=wrap;html=1;align=center;fontFamily=Helvetica;" vertex="1" parent="1">
          <mxGeometry x="825" y="-370" width="100" height="40" as="geometry" />
        </mxCell>
        <mxCell id="NJr3L0LB8Xf3tpoxmhNc-53" value="Drugs" style="ellipse;whiteSpace=wrap;html=1;align=center;fontFamily=Helvetica;" vertex="1" parent="1">
          <mxGeometry x="825" y="-420" width="100" height="40" as="geometry" />
        </mxCell>
        <mxCell id="NJr3L0LB8Xf3tpoxmhNc-54" value="Diagnos" style="ellipse;whiteSpace=wrap;html=1;align=center;fontFamily=Helvetica;" vertex="1" parent="1">
          <mxGeometry x="825" y="-470" width="100" height="40" as="geometry" />
        </mxCell>
        <mxCell id="NJr3L0LB8Xf3tpoxmhNc-55" value="ID" style="ellipse;whiteSpace=wrap;html=1;align=center;fontStyle=4;fontFamily=Helvetica;" vertex="1" parent="1">
          <mxGeometry x="635" y="-460" width="100" height="40" as="geometry" />
        </mxCell>
        <mxCell id="NJr3L0LB8Xf3tpoxmhNc-56" value="Read by" style="shape=rhombus;perimeter=rhombusPerimeter;whiteSpace=wrap;html=1;align=center;fontFamily=Helvetica;" vertex="1" parent="1">
          <mxGeometry x="660" y="-310" width="120" height="60" as="geometry" />
        </mxCell>
        <mxCell id="NJr3L0LB8Xf3tpoxmhNc-57" style="edgeStyle=orthogonalEdgeStyle;rounded=0;orthogonalLoop=1;jettySize=auto;html=1;exitX=0.75;exitY=0;exitDx=0;exitDy=0;fontFamily=Helvetica;" edge="1" parent="1" source="NJr3L0LB8Xf3tpoxmhNc-60" target="NJr3L0LB8Xf3tpoxmhNc-81">
          <mxGeometry relative="1" as="geometry" />
        </mxCell>
        <mxCell id="NJr3L0LB8Xf3tpoxmhNc-58" style="edgeStyle=orthogonalEdgeStyle;rounded=0;orthogonalLoop=1;jettySize=auto;html=1;exitX=0.5;exitY=1;exitDx=0;exitDy=0;entryX=0.5;entryY=0;entryDx=0;entryDy=0;fontFamily=Helvetica;" edge="1" parent="1" source="NJr3L0LB8Xf3tpoxmhNc-60" target="NJr3L0LB8Xf3tpoxmhNc-84">
          <mxGeometry relative="1" as="geometry" />
        </mxCell>
        <mxCell id="NJr3L0LB8Xf3tpoxmhNc-59" style="edgeStyle=orthogonalEdgeStyle;rounded=0;orthogonalLoop=1;jettySize=auto;html=1;exitX=1;exitY=0.25;exitDx=0;exitDy=0;entryX=0;entryY=0.5;entryDx=0;entryDy=0;fontFamily=Helvetica;" edge="1" parent="1" source="NJr3L0LB8Xf3tpoxmhNc-60" target="NJr3L0LB8Xf3tpoxmhNc-92">
          <mxGeometry relative="1" as="geometry" />
        </mxCell>
        <mxCell id="NJr3L0LB8Xf3tpoxmhNc-60" value="System" style="whiteSpace=wrap;html=1;align=center;fontFamily=Helvetica;" vertex="1" parent="1">
          <mxGeometry x="320" y="-840" width="170" height="100" as="geometry" />
        </mxCell>
        <mxCell id="NJr3L0LB8Xf3tpoxmhNc-61" style="edgeStyle=orthogonalEdgeStyle;rounded=0;orthogonalLoop=1;jettySize=auto;html=1;exitX=1;exitY=0;exitDx=0;exitDy=0;entryX=1;entryY=1;entryDx=0;entryDy=0;fontFamily=Helvetica;" edge="1" parent="1" source="NJr3L0LB8Xf3tpoxmhNc-68" target="NJr3L0LB8Xf3tpoxmhNc-85">
          <mxGeometry relative="1" as="geometry" />
        </mxCell>
        <mxCell id="NJr3L0LB8Xf3tpoxmhNc-62" style="edgeStyle=orthogonalEdgeStyle;rounded=0;orthogonalLoop=1;jettySize=auto;html=1;exitX=0.75;exitY=0;exitDx=0;exitDy=0;entryX=1;entryY=0.5;entryDx=0;entryDy=0;fontFamily=Helvetica;" edge="1" parent="1" source="NJr3L0LB8Xf3tpoxmhNc-68" target="NJr3L0LB8Xf3tpoxmhNc-86">
          <mxGeometry relative="1" as="geometry" />
        </mxCell>
        <mxCell id="NJr3L0LB8Xf3tpoxmhNc-63" style="edgeStyle=orthogonalEdgeStyle;rounded=0;orthogonalLoop=1;jettySize=auto;html=1;exitX=0.5;exitY=0;exitDx=0;exitDy=0;entryX=0.651;entryY=0.035;entryDx=0;entryDy=0;entryPerimeter=0;fontFamily=Helvetica;" edge="1" parent="1" source="NJr3L0LB8Xf3tpoxmhNc-68" target="NJr3L0LB8Xf3tpoxmhNc-87">
          <mxGeometry relative="1" as="geometry" />
        </mxCell>
        <mxCell id="NJr3L0LB8Xf3tpoxmhNc-64" style="edgeStyle=orthogonalEdgeStyle;rounded=0;orthogonalLoop=1;jettySize=auto;html=1;exitX=0;exitY=0.5;exitDx=0;exitDy=0;entryX=0.604;entryY=-0.046;entryDx=0;entryDy=0;entryPerimeter=0;fontFamily=Helvetica;" edge="1" parent="1" source="NJr3L0LB8Xf3tpoxmhNc-68" target="NJr3L0LB8Xf3tpoxmhNc-88">
          <mxGeometry relative="1" as="geometry" />
        </mxCell>
        <mxCell id="NJr3L0LB8Xf3tpoxmhNc-65" style="edgeStyle=orthogonalEdgeStyle;rounded=0;orthogonalLoop=1;jettySize=auto;html=1;exitX=0.5;exitY=1;exitDx=0;exitDy=0;entryX=0.328;entryY=0.008;entryDx=0;entryDy=0;entryPerimeter=0;fontFamily=Helvetica;" edge="1" parent="1" source="NJr3L0LB8Xf3tpoxmhNc-68" target="NJr3L0LB8Xf3tpoxmhNc-89">
          <mxGeometry relative="1" as="geometry" />
        </mxCell>
        <mxCell id="NJr3L0LB8Xf3tpoxmhNc-66" style="edgeStyle=orthogonalEdgeStyle;rounded=0;orthogonalLoop=1;jettySize=auto;html=1;exitX=1;exitY=0.5;exitDx=0;exitDy=0;entryX=0;entryY=0.5;entryDx=0;entryDy=0;fontFamily=Helvetica;" edge="1" parent="1" source="NJr3L0LB8Xf3tpoxmhNc-68" target="NJr3L0LB8Xf3tpoxmhNc-91">
          <mxGeometry relative="1" as="geometry" />
        </mxCell>
        <mxCell id="NJr3L0LB8Xf3tpoxmhNc-67" style="edgeStyle=orthogonalEdgeStyle;rounded=0;orthogonalLoop=1;jettySize=auto;html=1;exitX=1;exitY=0.75;exitDx=0;exitDy=0;entryX=0;entryY=0.5;entryDx=0;entryDy=0;fontFamily=Helvetica;" edge="1" parent="1" source="NJr3L0LB8Xf3tpoxmhNc-68" target="NJr3L0LB8Xf3tpoxmhNc-104">
          <mxGeometry relative="1" as="geometry" />
        </mxCell>
        <mxCell id="NJr3L0LB8Xf3tpoxmhNc-68" value="Surgeon" style="whiteSpace=wrap;html=1;align=center;fontFamily=Helvetica;" vertex="1" parent="1">
          <mxGeometry x="20" y="-840" width="100" height="40" as="geometry" />
        </mxCell>
        <mxCell id="NJr3L0LB8Xf3tpoxmhNc-69" style="edgeStyle=orthogonalEdgeStyle;rounded=0;orthogonalLoop=1;jettySize=auto;html=1;exitX=0.75;exitY=1;exitDx=0;exitDy=0;entryX=0.404;entryY=0.008;entryDx=0;entryDy=0;entryPerimeter=0;fontFamily=Helvetica;" edge="1" parent="1" source="NJr3L0LB8Xf3tpoxmhNc-74" target="NJr3L0LB8Xf3tpoxmhNc-102">
          <mxGeometry relative="1" as="geometry" />
        </mxCell>
        <mxCell id="NJr3L0LB8Xf3tpoxmhNc-70" style="edgeStyle=orthogonalEdgeStyle;rounded=0;orthogonalLoop=1;jettySize=auto;html=1;exitX=0;exitY=0.75;exitDx=0;exitDy=0;entryX=1;entryY=0.5;entryDx=0;entryDy=0;fontFamily=Helvetica;" edge="1" parent="1" source="NJr3L0LB8Xf3tpoxmhNc-74" target="NJr3L0LB8Xf3tpoxmhNc-101">
          <mxGeometry relative="1" as="geometry" />
        </mxCell>
        <mxCell id="NJr3L0LB8Xf3tpoxmhNc-71" style="edgeStyle=orthogonalEdgeStyle;rounded=0;orthogonalLoop=1;jettySize=auto;html=1;exitX=0;exitY=0;exitDx=0;exitDy=0;entryX=1;entryY=1;entryDx=0;entryDy=0;fontFamily=Helvetica;" edge="1" parent="1" source="NJr3L0LB8Xf3tpoxmhNc-74" target="NJr3L0LB8Xf3tpoxmhNc-100">
          <mxGeometry relative="1" as="geometry" />
        </mxCell>
        <mxCell id="NJr3L0LB8Xf3tpoxmhNc-72" style="edgeStyle=orthogonalEdgeStyle;rounded=0;orthogonalLoop=1;jettySize=auto;html=1;exitX=0.5;exitY=0;exitDx=0;exitDy=0;entryX=0.384;entryY=1.085;entryDx=0;entryDy=0;entryPerimeter=0;fontFamily=Helvetica;" edge="1" parent="1" source="NJr3L0LB8Xf3tpoxmhNc-74" target="NJr3L0LB8Xf3tpoxmhNc-99">
          <mxGeometry relative="1" as="geometry" />
        </mxCell>
        <mxCell id="NJr3L0LB8Xf3tpoxmhNc-73" style="edgeStyle=orthogonalEdgeStyle;rounded=0;orthogonalLoop=1;jettySize=auto;html=1;exitX=1;exitY=0.5;exitDx=0;exitDy=0;entryX=0;entryY=0.5;entryDx=0;entryDy=0;fontFamily=Helvetica;" edge="1" parent="1" source="NJr3L0LB8Xf3tpoxmhNc-74" target="NJr3L0LB8Xf3tpoxmhNc-108">
          <mxGeometry relative="1" as="geometry" />
        </mxCell>
        <mxCell id="NJr3L0LB8Xf3tpoxmhNc-74" value="Admin" style="whiteSpace=wrap;html=1;align=center;fontFamily=Helvetica;" vertex="1" parent="1">
          <mxGeometry x="70" y="-580" width="100" height="40" as="geometry" />
        </mxCell>
        <mxCell id="NJr3L0LB8Xf3tpoxmhNc-75" style="edgeStyle=orthogonalEdgeStyle;rounded=0;orthogonalLoop=1;jettySize=auto;html=1;exitX=1;exitY=0.5;exitDx=0;exitDy=0;entryX=0;entryY=0.5;entryDx=0;entryDy=0;fontFamily=Helvetica;" edge="1" parent="1" source="NJr3L0LB8Xf3tpoxmhNc-80" target="NJr3L0LB8Xf3tpoxmhNc-94">
          <mxGeometry relative="1" as="geometry" />
        </mxCell>
        <mxCell id="NJr3L0LB8Xf3tpoxmhNc-76" style="edgeStyle=orthogonalEdgeStyle;rounded=0;orthogonalLoop=1;jettySize=auto;html=1;exitX=0.75;exitY=0;exitDx=0;exitDy=0;entryX=0;entryY=1;entryDx=0;entryDy=0;fontFamily=Helvetica;" edge="1" parent="1" source="NJr3L0LB8Xf3tpoxmhNc-80" target="NJr3L0LB8Xf3tpoxmhNc-93">
          <mxGeometry relative="1" as="geometry" />
        </mxCell>
        <mxCell id="NJr3L0LB8Xf3tpoxmhNc-77" style="edgeStyle=orthogonalEdgeStyle;rounded=0;orthogonalLoop=1;jettySize=auto;html=1;exitX=1;exitY=1;exitDx=0;exitDy=0;entryX=1;entryY=0;entryDx=0;entryDy=0;fontFamily=Helvetica;" edge="1" parent="1" source="NJr3L0LB8Xf3tpoxmhNc-80" target="NJr3L0LB8Xf3tpoxmhNc-96">
          <mxGeometry relative="1" as="geometry" />
        </mxCell>
        <mxCell id="NJr3L0LB8Xf3tpoxmhNc-78" style="edgeStyle=orthogonalEdgeStyle;rounded=0;orthogonalLoop=1;jettySize=auto;html=1;exitX=0;exitY=0.5;exitDx=0;exitDy=0;entryX=1;entryY=0;entryDx=0;entryDy=0;fontFamily=Helvetica;" edge="1" parent="1" source="NJr3L0LB8Xf3tpoxmhNc-80" target="NJr3L0LB8Xf3tpoxmhNc-95">
          <mxGeometry relative="1" as="geometry" />
        </mxCell>
        <mxCell id="NJr3L0LB8Xf3tpoxmhNc-79" style="edgeStyle=orthogonalEdgeStyle;rounded=0;orthogonalLoop=1;jettySize=auto;html=1;exitX=0.25;exitY=0;exitDx=0;exitDy=0;entryX=0.5;entryY=1;entryDx=0;entryDy=0;fontFamily=Helvetica;" edge="1" parent="1" source="NJr3L0LB8Xf3tpoxmhNc-80" target="NJr3L0LB8Xf3tpoxmhNc-98">
          <mxGeometry relative="1" as="geometry" />
        </mxCell>
        <mxCell id="NJr3L0LB8Xf3tpoxmhNc-80" value="Nurse" style="whiteSpace=wrap;html=1;align=center;fontFamily=Helvetica;" vertex="1" parent="1">
          <mxGeometry x="510" y="-590" width="100" height="40" as="geometry" />
        </mxCell>
        <mxCell id="NJr3L0LB8Xf3tpoxmhNc-81" value="visits" style="ellipse;whiteSpace=wrap;html=1;align=center;fontFamily=Helvetica;" vertex="1" parent="1">
          <mxGeometry x="340" y="-910" width="100" height="40" as="geometry" />
        </mxCell>
        <mxCell id="NJr3L0LB8Xf3tpoxmhNc-82" style="edgeStyle=orthogonalEdgeStyle;rounded=0;orthogonalLoop=1;jettySize=auto;html=1;exitX=0;exitY=0.5;exitDx=0;exitDy=0;entryX=1;entryY=0;entryDx=0;entryDy=0;fontFamily=Helvetica;" edge="1" parent="1" source="NJr3L0LB8Xf3tpoxmhNc-83" target="NJr3L0LB8Xf3tpoxmhNc-60">
          <mxGeometry relative="1" as="geometry" />
        </mxCell>
        <mxCell id="NJr3L0LB8Xf3tpoxmhNc-83" value="adds visits" style="shape=rhombus;perimeter=rhombusPerimeter;whiteSpace=wrap;html=1;align=center;fontFamily=Helvetica;" vertex="1" parent="1">
          <mxGeometry x="470" y="-1010" width="120" height="60" as="geometry" />
        </mxCell>
        <mxCell id="NJr3L0LB8Xf3tpoxmhNc-84" value="Operations" style="ellipse;whiteSpace=wrap;html=1;align=center;fontFamily=Helvetica;" vertex="1" parent="1">
          <mxGeometry x="340" y="-720" width="100" height="40" as="geometry" />
        </mxCell>
        <mxCell id="NJr3L0LB8Xf3tpoxmhNc-85" value="Name" style="ellipse;whiteSpace=wrap;html=1;align=center;fontFamily=Helvetica;" vertex="1" parent="1">
          <mxGeometry x="10" y="-930" width="100" height="40" as="geometry" />
        </mxCell>
        <mxCell id="NJr3L0LB8Xf3tpoxmhNc-86" value="Gender" style="ellipse;whiteSpace=wrap;html=1;align=center;fontFamily=Helvetica;" vertex="1" parent="1">
          <mxGeometry x="-100" y="-900" width="100" height="40" as="geometry" />
        </mxCell>
        <mxCell id="NJr3L0LB8Xf3tpoxmhNc-87" value="Age" style="ellipse;whiteSpace=wrap;html=1;align=center;fontFamily=Helvetica;" vertex="1" parent="1">
          <mxGeometry x="-135" y="-840" width="100" height="40" as="geometry" />
        </mxCell>
        <mxCell id="NJr3L0LB8Xf3tpoxmhNc-88" value="Specialist" style="ellipse;whiteSpace=wrap;html=1;align=center;fontFamily=Helvetica;" vertex="1" parent="1">
          <mxGeometry x="-70" y="-790" width="100" height="40" as="geometry" />
        </mxCell>
        <mxCell id="NJr3L0LB8Xf3tpoxmhNc-89" value="Employee_ID" style="ellipse;whiteSpace=wrap;html=1;align=center;fontStyle=4;fontFamily=Helvetica;" vertex="1" parent="1">
          <mxGeometry x="40" y="-770" width="100" height="40" as="geometry" />
        </mxCell>
        <mxCell id="NJr3L0LB8Xf3tpoxmhNc-90" style="edgeStyle=orthogonalEdgeStyle;rounded=0;orthogonalLoop=1;jettySize=auto;html=1;exitX=1;exitY=0.5;exitDx=0;exitDy=0;entryX=0;entryY=0.5;entryDx=0;entryDy=0;fontFamily=Helvetica;" edge="1" parent="1" source="NJr3L0LB8Xf3tpoxmhNc-91" target="NJr3L0LB8Xf3tpoxmhNc-60">
          <mxGeometry relative="1" as="geometry" />
        </mxCell>
        <mxCell id="NJr3L0LB8Xf3tpoxmhNc-91" value="edit operations" style="shape=rhombus;perimeter=rhombusPerimeter;whiteSpace=wrap;html=1;align=center;fontFamily=Helvetica;" vertex="1" parent="1">
          <mxGeometry x="160" y="-930" width="120" height="60" as="geometry" />
        </mxCell>
        <mxCell id="NJr3L0LB8Xf3tpoxmhNc-92" value="Medical Card" style="ellipse;whiteSpace=wrap;html=1;align=center;fontFamily=Helvetica;" vertex="1" parent="1">
          <mxGeometry x="510" y="-850" width="100" height="40" as="geometry" />
        </mxCell>
        <mxCell id="NJr3L0LB8Xf3tpoxmhNc-93" value="Name" style="ellipse;whiteSpace=wrap;html=1;align=center;fontFamily=Helvetica;" vertex="1" parent="1">
          <mxGeometry x="610" y="-660" width="100" height="40" as="geometry" />
        </mxCell>
        <mxCell id="NJr3L0LB8Xf3tpoxmhNc-94" value="Gender" style="ellipse;whiteSpace=wrap;html=1;align=center;fontFamily=Helvetica;" vertex="1" parent="1">
          <mxGeometry x="630" y="-580" width="100" height="40" as="geometry" />
        </mxCell>
        <mxCell id="NJr3L0LB8Xf3tpoxmhNc-95" value="Age" style="ellipse;whiteSpace=wrap;html=1;align=center;fontFamily=Helvetica;" vertex="1" parent="1">
          <mxGeometry x="435" y="-530" width="100" height="40" as="geometry" />
        </mxCell>
        <mxCell id="NJr3L0LB8Xf3tpoxmhNc-96" value="Employee_ID" style="ellipse;whiteSpace=wrap;html=1;align=center;fontStyle=4;fontFamily=Helvetica;" vertex="1" parent="1">
          <mxGeometry x="535" y="-510" width="100" height="40" as="geometry" />
        </mxCell>
        <mxCell id="NJr3L0LB8Xf3tpoxmhNc-97" style="edgeStyle=orthogonalEdgeStyle;rounded=0;orthogonalLoop=1;jettySize=auto;html=1;exitX=0.5;exitY=0;exitDx=0;exitDy=0;entryX=1;entryY=1;entryDx=0;entryDy=0;fontFamily=Helvetica;" edge="1" parent="1" source="NJr3L0LB8Xf3tpoxmhNc-98" target="NJr3L0LB8Xf3tpoxmhNc-60">
          <mxGeometry relative="1" as="geometry" />
        </mxCell>
        <mxCell id="NJr3L0LB8Xf3tpoxmhNc-98" value="edit medical card" style="shape=rhombus;perimeter=rhombusPerimeter;whiteSpace=wrap;html=1;align=center;fontFamily=Helvetica;" vertex="1" parent="1">
          <mxGeometry x="470" y="-710" width="120" height="60" as="geometry" />
        </mxCell>
        <mxCell id="NJr3L0LB8Xf3tpoxmhNc-99" value="Name" style="ellipse;whiteSpace=wrap;html=1;align=center;fontFamily=Helvetica;" vertex="1" parent="1">
          <mxGeometry x="77.5" y="-650" width="100" height="40" as="geometry" />
        </mxCell>
        <mxCell id="NJr3L0LB8Xf3tpoxmhNc-100" value="Gender" style="ellipse;whiteSpace=wrap;html=1;align=center;fontFamily=Helvetica;" vertex="1" parent="1">
          <mxGeometry x="-35" y="-630" width="100" height="40" as="geometry" />
        </mxCell>
        <mxCell id="NJr3L0LB8Xf3tpoxmhNc-101" value="Age" style="ellipse;whiteSpace=wrap;html=1;align=center;fontFamily=Helvetica;" vertex="1" parent="1">
          <mxGeometry x="-50" y="-550" width="100" height="40" as="geometry" />
        </mxCell>
        <mxCell id="NJr3L0LB8Xf3tpoxmhNc-102" value="Employee_ID" style="ellipse;whiteSpace=wrap;html=1;align=center;fontStyle=4;fontFamily=Helvetica;" vertex="1" parent="1">
          <mxGeometry x="77.5" y="-520" width="100" height="40" as="geometry" />
        </mxCell>
        <mxCell id="NJr3L0LB8Xf3tpoxmhNc-103" style="edgeStyle=orthogonalEdgeStyle;rounded=0;orthogonalLoop=1;jettySize=auto;html=1;exitX=1;exitY=0.5;exitDx=0;exitDy=0;entryX=0;entryY=0.75;entryDx=0;entryDy=0;fontFamily=Helvetica;" edge="1" parent="1" source="NJr3L0LB8Xf3tpoxmhNc-104" target="NJr3L0LB8Xf3tpoxmhNc-60">
          <mxGeometry relative="1" as="geometry" />
        </mxCell>
        <mxCell id="NJr3L0LB8Xf3tpoxmhNc-104" value="edit medical card" style="shape=rhombus;perimeter=rhombusPerimeter;whiteSpace=wrap;html=1;align=center;fontFamily=Helvetica;" vertex="1" parent="1">
          <mxGeometry x="160" y="-810" width="120" height="60" as="geometry" />
        </mxCell>
        <mxCell id="NJr3L0LB8Xf3tpoxmhNc-105" style="edgeStyle=orthogonalEdgeStyle;rounded=0;orthogonalLoop=1;jettySize=auto;html=1;exitX=0.5;exitY=1;exitDx=0;exitDy=0;entryX=1;entryY=0.75;entryDx=0;entryDy=0;fontFamily=Helvetica;" edge="1" parent="1" source="NJr3L0LB8Xf3tpoxmhNc-106" target="NJr3L0LB8Xf3tpoxmhNc-60">
          <mxGeometry relative="1" as="geometry" />
        </mxCell>
        <mxCell id="NJr3L0LB8Xf3tpoxmhNc-106" value="edit medical card" style="shape=rhombus;perimeter=rhombusPerimeter;whiteSpace=wrap;html=1;align=center;fontFamily=Helvetica;" vertex="1" parent="1">
          <mxGeometry x="585" y="-960" width="120" height="60" as="geometry" />
        </mxCell>
        <mxCell id="NJr3L0LB8Xf3tpoxmhNc-107" style="edgeStyle=orthogonalEdgeStyle;rounded=0;orthogonalLoop=1;jettySize=auto;html=1;exitX=0.5;exitY=0;exitDx=0;exitDy=0;entryX=0;entryY=1;entryDx=0;entryDy=0;fontFamily=Helvetica;" edge="1" parent="1" source="NJr3L0LB8Xf3tpoxmhNc-108" target="NJr3L0LB8Xf3tpoxmhNc-60">
          <mxGeometry relative="1" as="geometry" />
        </mxCell>
        <mxCell id="NJr3L0LB8Xf3tpoxmhNc-108" value="edits&amp;nbsp;" style="shape=rhombus;perimeter=rhombusPerimeter;whiteSpace=wrap;html=1;align=center;fontFamily=Helvetica;" vertex="1" parent="1">
          <mxGeometry x="220" y="-640" width="120" height="60" as="geometry" />
        </mxCell>
      </root>
    </mxGraphModel>
  </diagram>
  <diagram id="Vt8evTuwUWHlYqGmHgUq" name="doctor">
    <mxGraphModel dx="2100" dy="2216" grid="1" gridSize="10" guides="1" tooltips="1" connect="1" arrows="1" fold="1" page="1" pageScale="1" pageWidth="850" pageHeight="1100" math="0" shadow="0">
      <root>
        <mxCell id="0" />
        <mxCell id="1" parent="0" />
        <mxCell id="8GaVax-I0_2X1KFB453u-109" style="edgeStyle=orthogonalEdgeStyle;rounded=0;orthogonalLoop=1;jettySize=auto;html=1;exitX=0;exitY=0.5;exitDx=0;exitDy=0;entryX=1;entryY=0;entryDx=0;entryDy=0;fontFamily=Helvetica;" edge="1" parent="1" source="8GaVax-I0_2X1KFB453u-116" target="8GaVax-I0_2X1KFB453u-128">
          <mxGeometry relative="1" as="geometry" />
        </mxCell>
        <mxCell id="8GaVax-I0_2X1KFB453u-110" style="edgeStyle=orthogonalEdgeStyle;rounded=0;orthogonalLoop=1;jettySize=auto;html=1;exitX=0.25;exitY=1;exitDx=0;exitDy=0;entryX=0.905;entryY=0.302;entryDx=0;entryDy=0;entryPerimeter=0;fontFamily=Helvetica;" edge="1" parent="1" source="8GaVax-I0_2X1KFB453u-116" target="8GaVax-I0_2X1KFB453u-132">
          <mxGeometry relative="1" as="geometry" />
        </mxCell>
        <mxCell id="8GaVax-I0_2X1KFB453u-111" style="edgeStyle=orthogonalEdgeStyle;rounded=0;orthogonalLoop=1;jettySize=auto;html=1;exitX=1;exitY=1;exitDx=0;exitDy=0;entryX=0;entryY=0.5;entryDx=0;entryDy=0;fontFamily=Helvetica;" edge="1" parent="1" source="8GaVax-I0_2X1KFB453u-116" target="8GaVax-I0_2X1KFB453u-120">
          <mxGeometry relative="1" as="geometry" />
        </mxCell>
        <mxCell id="8GaVax-I0_2X1KFB453u-112" style="edgeStyle=orthogonalEdgeStyle;rounded=0;orthogonalLoop=1;jettySize=auto;html=1;exitX=0.75;exitY=1;exitDx=0;exitDy=0;entryX=0;entryY=0.5;entryDx=0;entryDy=0;fontFamily=Helvetica;" edge="1" parent="1" source="8GaVax-I0_2X1KFB453u-116" target="8GaVax-I0_2X1KFB453u-121">
          <mxGeometry relative="1" as="geometry" />
        </mxCell>
        <mxCell id="8GaVax-I0_2X1KFB453u-113" style="edgeStyle=orthogonalEdgeStyle;rounded=0;orthogonalLoop=1;jettySize=auto;html=1;exitX=1;exitY=0;exitDx=0;exitDy=0;entryX=0;entryY=0.5;entryDx=0;entryDy=0;fontFamily=Helvetica;" edge="1" parent="1" source="8GaVax-I0_2X1KFB453u-116" target="8GaVax-I0_2X1KFB453u-119">
          <mxGeometry relative="1" as="geometry" />
        </mxCell>
        <mxCell id="8GaVax-I0_2X1KFB453u-114" style="edgeStyle=orthogonalEdgeStyle;rounded=0;orthogonalLoop=1;jettySize=auto;html=1;exitX=0.75;exitY=0;exitDx=0;exitDy=0;entryX=0;entryY=1;entryDx=0;entryDy=0;fontFamily=Helvetica;" edge="1" parent="1" source="8GaVax-I0_2X1KFB453u-116" target="8GaVax-I0_2X1KFB453u-118">
          <mxGeometry relative="1" as="geometry" />
        </mxCell>
        <mxCell id="8GaVax-I0_2X1KFB453u-115" style="edgeStyle=orthogonalEdgeStyle;rounded=0;orthogonalLoop=1;jettySize=auto;html=1;exitX=0.25;exitY=0;exitDx=0;exitDy=0;entryX=0.5;entryY=1;entryDx=0;entryDy=0;fontFamily=Helvetica;" edge="1" parent="1" source="8GaVax-I0_2X1KFB453u-116" target="8GaVax-I0_2X1KFB453u-117">
          <mxGeometry relative="1" as="geometry" />
        </mxCell>
        <mxCell id="8GaVax-I0_2X1KFB453u-116" value="Dcotor" style="whiteSpace=wrap;html=1;align=center;fontFamily=Helvetica;" vertex="1" parent="1">
          <mxGeometry x="508" y="-810" width="100" height="40" as="geometry" />
        </mxCell>
        <mxCell id="8GaVax-I0_2X1KFB453u-117" value="Name" style="ellipse;whiteSpace=wrap;html=1;align=center;fontFamily=Helvetica;" vertex="1" parent="1">
          <mxGeometry x="488" y="-890" width="100" height="40" as="geometry" />
        </mxCell>
        <mxCell id="8GaVax-I0_2X1KFB453u-118" value="Gender" style="ellipse;whiteSpace=wrap;html=1;align=center;fontFamily=Helvetica;" vertex="1" parent="1">
          <mxGeometry x="608" y="-900" width="100" height="40" as="geometry" />
        </mxCell>
        <mxCell id="8GaVax-I0_2X1KFB453u-119" value="Age" style="ellipse;whiteSpace=wrap;html=1;align=center;fontFamily=Helvetica;" vertex="1" parent="1">
          <mxGeometry x="628" y="-840" width="100" height="40" as="geometry" />
        </mxCell>
        <mxCell id="8GaVax-I0_2X1KFB453u-120" value="Specialist" style="ellipse;whiteSpace=wrap;html=1;align=center;fontFamily=Helvetica;" vertex="1" parent="1">
          <mxGeometry x="628" y="-790" width="100" height="40" as="geometry" />
        </mxCell>
        <mxCell id="8GaVax-I0_2X1KFB453u-121" value="Employee_ID" style="ellipse;whiteSpace=wrap;html=1;align=center;fontStyle=4;fontFamily=Helvetica;" vertex="1" parent="1">
          <mxGeometry x="628" y="-740" width="100" height="40" as="geometry" />
        </mxCell>
        <mxCell id="8GaVax-I0_2X1KFB453u-122" style="edgeStyle=orthogonalEdgeStyle;rounded=0;orthogonalLoop=1;jettySize=auto;html=1;exitX=0.5;exitY=1;exitDx=0;exitDy=0;fontFamily=Helvetica;" edge="1" parent="1" source="8GaVax-I0_2X1KFB453u-125" target="8GaVax-I0_2X1KFB453u-129">
          <mxGeometry relative="1" as="geometry" />
        </mxCell>
        <mxCell id="8GaVax-I0_2X1KFB453u-123" style="edgeStyle=orthogonalEdgeStyle;rounded=0;orthogonalLoop=1;jettySize=auto;html=1;exitX=0.5;exitY=0;exitDx=0;exitDy=0;entryX=0.5;entryY=1;entryDx=0;entryDy=0;fontFamily=Helvetica;" edge="1" parent="1" source="8GaVax-I0_2X1KFB453u-125" target="8GaVax-I0_2X1KFB453u-126">
          <mxGeometry relative="1" as="geometry" />
        </mxCell>
        <mxCell id="8GaVax-I0_2X1KFB453u-124" style="edgeStyle=orthogonalEdgeStyle;rounded=0;orthogonalLoop=1;jettySize=auto;html=1;exitX=1;exitY=0.25;exitDx=0;exitDy=0;entryX=0;entryY=1;entryDx=0;entryDy=0;fontFamily=Helvetica;" edge="1" parent="1" source="8GaVax-I0_2X1KFB453u-125" target="8GaVax-I0_2X1KFB453u-130">
          <mxGeometry relative="1" as="geometry" />
        </mxCell>
        <mxCell id="8GaVax-I0_2X1KFB453u-125" value="System" style="whiteSpace=wrap;html=1;align=center;fontFamily=Helvetica;" vertex="1" parent="1">
          <mxGeometry x="123" y="-590" width="170" height="100" as="geometry" />
        </mxCell>
        <mxCell id="8GaVax-I0_2X1KFB453u-126" value="visits" style="ellipse;whiteSpace=wrap;html=1;align=center;fontFamily=Helvetica;" vertex="1" parent="1">
          <mxGeometry x="143" y="-660" width="100" height="40" as="geometry" />
        </mxCell>
        <mxCell id="8GaVax-I0_2X1KFB453u-127" style="edgeStyle=orthogonalEdgeStyle;rounded=0;orthogonalLoop=1;jettySize=auto;html=1;exitX=0;exitY=0.5;exitDx=0;exitDy=0;entryX=0;entryY=0;entryDx=0;entryDy=0;fontFamily=Helvetica;" edge="1" parent="1" source="8GaVax-I0_2X1KFB453u-128" target="8GaVax-I0_2X1KFB453u-125">
          <mxGeometry relative="1" as="geometry" />
        </mxCell>
        <mxCell id="8GaVax-I0_2X1KFB453u-128" value="adds visits" style="shape=rhombus;perimeter=rhombusPerimeter;whiteSpace=wrap;html=1;align=center;fontFamily=Helvetica;" vertex="1" parent="1">
          <mxGeometry x="273" y="-760" width="120" height="60" as="geometry" />
        </mxCell>
        <mxCell id="8GaVax-I0_2X1KFB453u-129" value="Operations" style="ellipse;whiteSpace=wrap;html=1;align=center;fontFamily=Helvetica;" vertex="1" parent="1">
          <mxGeometry x="143" y="-470" width="100" height="40" as="geometry" />
        </mxCell>
        <mxCell id="8GaVax-I0_2X1KFB453u-130" value="Medical Card" style="ellipse;whiteSpace=wrap;html=1;align=center;fontFamily=Helvetica;" vertex="1" parent="1">
          <mxGeometry x="313" y="-600" width="100" height="40" as="geometry" />
        </mxCell>
        <mxCell id="8GaVax-I0_2X1KFB453u-131" style="edgeStyle=orthogonalEdgeStyle;rounded=0;orthogonalLoop=1;jettySize=auto;html=1;exitX=0;exitY=0.5;exitDx=0;exitDy=0;entryX=1;entryY=0;entryDx=0;entryDy=0;fontFamily=Helvetica;" edge="1" parent="1" source="8GaVax-I0_2X1KFB453u-132" target="8GaVax-I0_2X1KFB453u-125">
          <mxGeometry relative="1" as="geometry" />
        </mxCell>
        <mxCell id="8GaVax-I0_2X1KFB453u-132" value="edit medical card" style="shape=rhombus;perimeter=rhombusPerimeter;whiteSpace=wrap;html=1;align=center;fontFamily=Helvetica;" vertex="1" parent="1">
          <mxGeometry x="388" y="-710" width="120" height="60" as="geometry" />
        </mxCell>
      </root>
    </mxGraphModel>
  </diagram>
  <diagram id="PSwuoyYNkLI2kHH9YQLK" name="surgeon">
    <mxGraphModel dx="1050" dy="1658" grid="1" gridSize="10" guides="1" tooltips="1" connect="1" arrows="1" fold="1" page="1" pageScale="1" pageWidth="850" pageHeight="1100" math="0" shadow="0">
      <root>
        <mxCell id="0" />
        <mxCell id="1" parent="0" />
        <mxCell id="QyqQa_h6IJaekGPOMJ8a-1" style="edgeStyle=orthogonalEdgeStyle;rounded=0;orthogonalLoop=1;jettySize=auto;html=1;exitX=0.75;exitY=0;exitDx=0;exitDy=0;fontFamily=Helvetica;" edge="1" parent="1" source="QyqQa_h6IJaekGPOMJ8a-3" target="QyqQa_h6IJaekGPOMJ8a-12">
          <mxGeometry relative="1" as="geometry" />
        </mxCell>
        <mxCell id="QyqQa_h6IJaekGPOMJ8a-2" style="edgeStyle=orthogonalEdgeStyle;rounded=0;orthogonalLoop=1;jettySize=auto;html=1;exitX=1;exitY=0.25;exitDx=0;exitDy=0;entryX=0;entryY=0.5;entryDx=0;entryDy=0;fontFamily=Helvetica;" edge="1" parent="1" source="QyqQa_h6IJaekGPOMJ8a-3" target="QyqQa_h6IJaekGPOMJ8a-21">
          <mxGeometry relative="1" as="geometry" />
        </mxCell>
        <mxCell id="QyqQa_h6IJaekGPOMJ8a-3" value="System" style="whiteSpace=wrap;html=1;align=center;fontFamily=Helvetica;" vertex="1" parent="1">
          <mxGeometry x="505" y="-720" width="170" height="130" as="geometry" />
        </mxCell>
        <mxCell id="QyqQa_h6IJaekGPOMJ8a-4" style="edgeStyle=orthogonalEdgeStyle;rounded=0;orthogonalLoop=1;jettySize=auto;html=1;exitX=1;exitY=0.5;exitDx=0;exitDy=0;entryX=0;entryY=0.5;entryDx=0;entryDy=0;fontFamily=Helvetica;" edge="1" parent="1" source="QyqQa_h6IJaekGPOMJ8a-11" target="QyqQa_h6IJaekGPOMJ8a-20">
          <mxGeometry relative="1" as="geometry" />
        </mxCell>
        <mxCell id="QyqQa_h6IJaekGPOMJ8a-5" style="edgeStyle=orthogonalEdgeStyle;rounded=0;orthogonalLoop=1;jettySize=auto;html=1;exitX=0.5;exitY=0;exitDx=0;exitDy=0;entryX=0.5;entryY=1;entryDx=0;entryDy=0;fontFamily=Helvetica;" edge="1" parent="1" source="QyqQa_h6IJaekGPOMJ8a-11" target="QyqQa_h6IJaekGPOMJ8a-14">
          <mxGeometry relative="1" as="geometry" />
        </mxCell>
        <mxCell id="QyqQa_h6IJaekGPOMJ8a-6" style="edgeStyle=orthogonalEdgeStyle;rounded=0;orthogonalLoop=1;jettySize=auto;html=1;exitX=1;exitY=1;exitDx=0;exitDy=0;entryX=0;entryY=0.5;entryDx=0;entryDy=0;fontFamily=Helvetica;" edge="1" parent="1" source="QyqQa_h6IJaekGPOMJ8a-11" target="QyqQa_h6IJaekGPOMJ8a-23">
          <mxGeometry relative="1" as="geometry" />
        </mxCell>
        <mxCell id="QyqQa_h6IJaekGPOMJ8a-7" style="edgeStyle=orthogonalEdgeStyle;rounded=0;orthogonalLoop=1;jettySize=auto;html=1;exitX=0.75;exitY=1;exitDx=0;exitDy=0;entryX=0.5;entryY=0;entryDx=0;entryDy=0;fontFamily=Helvetica;" edge="1" parent="1" source="QyqQa_h6IJaekGPOMJ8a-11" target="QyqQa_h6IJaekGPOMJ8a-18">
          <mxGeometry relative="1" as="geometry" />
        </mxCell>
        <mxCell id="QyqQa_h6IJaekGPOMJ8a-8" style="edgeStyle=orthogonalEdgeStyle;rounded=0;orthogonalLoop=1;jettySize=auto;html=1;exitX=0.25;exitY=1;exitDx=0;exitDy=0;entryX=1;entryY=0;entryDx=0;entryDy=0;fontFamily=Helvetica;" edge="1" parent="1" source="QyqQa_h6IJaekGPOMJ8a-11" target="QyqQa_h6IJaekGPOMJ8a-17">
          <mxGeometry relative="1" as="geometry" />
        </mxCell>
        <mxCell id="QyqQa_h6IJaekGPOMJ8a-9" style="edgeStyle=orthogonalEdgeStyle;rounded=0;orthogonalLoop=1;jettySize=auto;html=1;exitX=0;exitY=0.5;exitDx=0;exitDy=0;entryX=1;entryY=0.5;entryDx=0;entryDy=0;fontFamily=Helvetica;" edge="1" parent="1" source="QyqQa_h6IJaekGPOMJ8a-11" target="QyqQa_h6IJaekGPOMJ8a-16">
          <mxGeometry relative="1" as="geometry" />
        </mxCell>
        <mxCell id="QyqQa_h6IJaekGPOMJ8a-10" style="edgeStyle=orthogonalEdgeStyle;rounded=0;orthogonalLoop=1;jettySize=auto;html=1;exitX=0;exitY=0;exitDx=0;exitDy=0;entryX=1;entryY=1;entryDx=0;entryDy=0;fontFamily=Helvetica;" edge="1" parent="1" source="QyqQa_h6IJaekGPOMJ8a-11" target="QyqQa_h6IJaekGPOMJ8a-15">
          <mxGeometry relative="1" as="geometry" />
        </mxCell>
        <mxCell id="QyqQa_h6IJaekGPOMJ8a-11" value="Surgeon" style="whiteSpace=wrap;html=1;align=center;fontFamily=Helvetica;" vertex="1" parent="1">
          <mxGeometry x="195" y="-730" width="100" height="40" as="geometry" />
        </mxCell>
        <mxCell id="QyqQa_h6IJaekGPOMJ8a-12" value="visits" style="ellipse;whiteSpace=wrap;html=1;align=center;fontFamily=Helvetica;" vertex="1" parent="1">
          <mxGeometry x="525" y="-790" width="100" height="40" as="geometry" />
        </mxCell>
        <mxCell id="QyqQa_h6IJaekGPOMJ8a-13" value="Operations" style="ellipse;whiteSpace=wrap;html=1;align=center;fontFamily=Helvetica;" vertex="1" parent="1">
          <mxGeometry x="525" y="-600" width="100" height="40" as="geometry" />
        </mxCell>
        <mxCell id="QyqQa_h6IJaekGPOMJ8a-14" value="Name" style="ellipse;whiteSpace=wrap;html=1;align=center;fontFamily=Helvetica;" vertex="1" parent="1">
          <mxGeometry x="195" y="-810" width="100" height="40" as="geometry" />
        </mxCell>
        <mxCell id="QyqQa_h6IJaekGPOMJ8a-15" value="Gender" style="ellipse;whiteSpace=wrap;html=1;align=center;fontFamily=Helvetica;" vertex="1" parent="1">
          <mxGeometry x="85" y="-780" width="100" height="40" as="geometry" />
        </mxCell>
        <mxCell id="QyqQa_h6IJaekGPOMJ8a-16" value="Age" style="ellipse;whiteSpace=wrap;html=1;align=center;fontFamily=Helvetica;" vertex="1" parent="1">
          <mxGeometry x="50" y="-720" width="100" height="40" as="geometry" />
        </mxCell>
        <mxCell id="QyqQa_h6IJaekGPOMJ8a-17" value="Specialist" style="ellipse;whiteSpace=wrap;html=1;align=center;fontFamily=Helvetica;" vertex="1" parent="1">
          <mxGeometry x="115" y="-670" width="100" height="40" as="geometry" />
        </mxCell>
        <mxCell id="QyqQa_h6IJaekGPOMJ8a-18" value="Employee_ID" style="ellipse;whiteSpace=wrap;html=1;align=center;fontStyle=4;fontFamily=Helvetica;" vertex="1" parent="1">
          <mxGeometry x="225" y="-650" width="100" height="40" as="geometry" />
        </mxCell>
        <mxCell id="QyqQa_h6IJaekGPOMJ8a-19" style="edgeStyle=orthogonalEdgeStyle;rounded=0;orthogonalLoop=1;jettySize=auto;html=1;exitX=1;exitY=0.5;exitDx=0;exitDy=0;entryX=0;entryY=0.5;entryDx=0;entryDy=0;fontFamily=Helvetica;" edge="1" parent="1" source="QyqQa_h6IJaekGPOMJ8a-20" target="QyqQa_h6IJaekGPOMJ8a-3">
          <mxGeometry relative="1" as="geometry" />
        </mxCell>
        <mxCell id="QyqQa_h6IJaekGPOMJ8a-20" value="edit operations" style="shape=rhombus;perimeter=rhombusPerimeter;whiteSpace=wrap;html=1;align=center;fontFamily=Helvetica;" vertex="1" parent="1">
          <mxGeometry x="345" y="-810" width="120" height="60" as="geometry" />
        </mxCell>
        <mxCell id="QyqQa_h6IJaekGPOMJ8a-21" value="Medical Card" style="ellipse;whiteSpace=wrap;html=1;align=center;fontFamily=Helvetica;" vertex="1" parent="1">
          <mxGeometry x="695" y="-730" width="100" height="40" as="geometry" />
        </mxCell>
        <mxCell id="QyqQa_h6IJaekGPOMJ8a-22" style="edgeStyle=orthogonalEdgeStyle;rounded=0;orthogonalLoop=1;jettySize=auto;html=1;exitX=1;exitY=0.5;exitDx=0;exitDy=0;entryX=0;entryY=0.75;entryDx=0;entryDy=0;fontFamily=Helvetica;" edge="1" parent="1" source="QyqQa_h6IJaekGPOMJ8a-23" target="QyqQa_h6IJaekGPOMJ8a-3">
          <mxGeometry relative="1" as="geometry" />
        </mxCell>
        <mxCell id="QyqQa_h6IJaekGPOMJ8a-23" value="edit medical card" style="shape=rhombus;perimeter=rhombusPerimeter;whiteSpace=wrap;html=1;align=center;fontFamily=Helvetica;" vertex="1" parent="1">
          <mxGeometry x="345" y="-690" width="120" height="60" as="geometry" />
        </mxCell>
      </root>
    </mxGraphModel>
  </diagram>
  <diagram id="v0CDQak5wcTb_IeZOdOW" name="nurse">
    <mxGraphModel dx="1050" dy="1658" grid="1" gridSize="10" guides="1" tooltips="1" connect="1" arrows="1" fold="1" page="1" pageScale="1" pageWidth="850" pageHeight="1100" math="0" shadow="0">
      <root>
        <mxCell id="0" />
        <mxCell id="1" parent="0" />
        <mxCell id="DRDCxY-t06iBHeeWm9um-1" style="edgeStyle=orthogonalEdgeStyle;rounded=0;orthogonalLoop=1;jettySize=auto;html=1;exitX=0.5;exitY=0;exitDx=0;exitDy=0;entryX=0.5;entryY=1;entryDx=0;entryDy=0;fontFamily=Helvetica;" edge="1" parent="1" source="DRDCxY-t06iBHeeWm9um-4" target="DRDCxY-t06iBHeeWm9um-11">
          <mxGeometry relative="1" as="geometry" />
        </mxCell>
        <mxCell id="DRDCxY-t06iBHeeWm9um-2" style="edgeStyle=orthogonalEdgeStyle;rounded=0;orthogonalLoop=1;jettySize=auto;html=1;exitX=1;exitY=0.25;exitDx=0;exitDy=0;entryX=0;entryY=1;entryDx=0;entryDy=0;fontFamily=Helvetica;" edge="1" parent="1" source="DRDCxY-t06iBHeeWm9um-4" target="DRDCxY-t06iBHeeWm9um-13">
          <mxGeometry relative="1" as="geometry" />
        </mxCell>
        <mxCell id="DRDCxY-t06iBHeeWm9um-3" style="edgeStyle=orthogonalEdgeStyle;rounded=0;orthogonalLoop=1;jettySize=auto;html=1;exitX=0.25;exitY=1;exitDx=0;exitDy=0;entryX=0;entryY=0;entryDx=0;entryDy=0;fontFamily=Helvetica;" edge="1" parent="1" source="DRDCxY-t06iBHeeWm9um-4" target="DRDCxY-t06iBHeeWm9um-12">
          <mxGeometry relative="1" as="geometry" />
        </mxCell>
        <mxCell id="DRDCxY-t06iBHeeWm9um-4" value="System" style="whiteSpace=wrap;html=1;align=center;fontFamily=Helvetica;" vertex="1" parent="1">
          <mxGeometry x="320" y="-840" width="170" height="100" as="geometry" />
        </mxCell>
        <mxCell id="DRDCxY-t06iBHeeWm9um-5" style="edgeStyle=orthogonalEdgeStyle;rounded=0;orthogonalLoop=1;jettySize=auto;html=1;exitX=0.5;exitY=0;exitDx=0;exitDy=0;entryX=0.5;entryY=1;entryDx=0;entryDy=0;fontFamily=Helvetica;" edge="1" parent="1" source="DRDCxY-t06iBHeeWm9um-10" target="DRDCxY-t06iBHeeWm9um-19">
          <mxGeometry relative="1" as="geometry" />
        </mxCell>
        <mxCell id="DRDCxY-t06iBHeeWm9um-6" style="edgeStyle=orthogonalEdgeStyle;rounded=0;orthogonalLoop=1;jettySize=auto;html=1;exitX=0;exitY=1;exitDx=0;exitDy=0;entryX=0.65;entryY=0.011;entryDx=0;entryDy=0;entryPerimeter=0;fontFamily=Helvetica;" edge="1" parent="1" source="DRDCxY-t06iBHeeWm9um-10" target="DRDCxY-t06iBHeeWm9um-16">
          <mxGeometry relative="1" as="geometry" />
        </mxCell>
        <mxCell id="DRDCxY-t06iBHeeWm9um-7" style="edgeStyle=orthogonalEdgeStyle;rounded=0;orthogonalLoop=1;jettySize=auto;html=1;exitX=0.25;exitY=1;exitDx=0;exitDy=0;entryX=0;entryY=0;entryDx=0;entryDy=0;fontFamily=Helvetica;" edge="1" parent="1" source="DRDCxY-t06iBHeeWm9um-10" target="DRDCxY-t06iBHeeWm9um-17">
          <mxGeometry relative="1" as="geometry" />
        </mxCell>
        <mxCell id="DRDCxY-t06iBHeeWm9um-8" style="edgeStyle=orthogonalEdgeStyle;rounded=0;orthogonalLoop=1;jettySize=auto;html=1;exitX=0.75;exitY=1;exitDx=0;exitDy=0;entryX=0;entryY=1;entryDx=0;entryDy=0;fontFamily=Helvetica;" edge="1" parent="1" source="DRDCxY-t06iBHeeWm9um-10" target="DRDCxY-t06iBHeeWm9um-15">
          <mxGeometry relative="1" as="geometry" />
        </mxCell>
        <mxCell id="DRDCxY-t06iBHeeWm9um-9" style="edgeStyle=orthogonalEdgeStyle;rounded=0;orthogonalLoop=1;jettySize=auto;html=1;exitX=1;exitY=0;exitDx=0;exitDy=0;entryX=0;entryY=1;entryDx=0;entryDy=0;fontFamily=Helvetica;" edge="1" parent="1" source="DRDCxY-t06iBHeeWm9um-10" target="DRDCxY-t06iBHeeWm9um-14">
          <mxGeometry relative="1" as="geometry" />
        </mxCell>
        <mxCell id="DRDCxY-t06iBHeeWm9um-10" value="Nurse" style="whiteSpace=wrap;html=1;align=center;fontFamily=Helvetica;" vertex="1" parent="1">
          <mxGeometry x="510" y="-590" width="100" height="40" as="geometry" />
        </mxCell>
        <mxCell id="DRDCxY-t06iBHeeWm9um-11" value="visits" style="ellipse;whiteSpace=wrap;html=1;align=center;fontFamily=Helvetica;" vertex="1" parent="1">
          <mxGeometry x="340" y="-910" width="100" height="40" as="geometry" />
        </mxCell>
        <mxCell id="DRDCxY-t06iBHeeWm9um-12" value="Operations" style="ellipse;whiteSpace=wrap;html=1;align=center;fontFamily=Helvetica;" vertex="1" parent="1">
          <mxGeometry x="340" y="-720" width="100" height="40" as="geometry" />
        </mxCell>
        <mxCell id="DRDCxY-t06iBHeeWm9um-13" value="Medical Card" style="ellipse;whiteSpace=wrap;html=1;align=center;fontFamily=Helvetica;" vertex="1" parent="1">
          <mxGeometry x="510" y="-850" width="100" height="40" as="geometry" />
        </mxCell>
        <mxCell id="DRDCxY-t06iBHeeWm9um-14" value="Name" style="ellipse;whiteSpace=wrap;html=1;align=center;fontFamily=Helvetica;" vertex="1" parent="1">
          <mxGeometry x="610" y="-660" width="100" height="40" as="geometry" />
        </mxCell>
        <mxCell id="DRDCxY-t06iBHeeWm9um-15" value="Gender" style="ellipse;whiteSpace=wrap;html=1;align=center;fontFamily=Helvetica;" vertex="1" parent="1">
          <mxGeometry x="630" y="-580" width="100" height="40" as="geometry" />
        </mxCell>
        <mxCell id="DRDCxY-t06iBHeeWm9um-16" value="Age" style="ellipse;whiteSpace=wrap;html=1;align=center;fontFamily=Helvetica;" vertex="1" parent="1">
          <mxGeometry x="435" y="-530" width="100" height="40" as="geometry" />
        </mxCell>
        <mxCell id="DRDCxY-t06iBHeeWm9um-17" value="Employee_ID" style="ellipse;whiteSpace=wrap;html=1;align=center;fontStyle=4;fontFamily=Helvetica;" vertex="1" parent="1">
          <mxGeometry x="535" y="-510" width="100" height="40" as="geometry" />
        </mxCell>
        <mxCell id="DRDCxY-t06iBHeeWm9um-18" style="edgeStyle=orthogonalEdgeStyle;rounded=0;orthogonalLoop=1;jettySize=auto;html=1;exitX=0.5;exitY=0;exitDx=0;exitDy=0;entryX=1;entryY=1;entryDx=0;entryDy=0;fontFamily=Helvetica;" edge="1" parent="1" source="DRDCxY-t06iBHeeWm9um-19" target="DRDCxY-t06iBHeeWm9um-4">
          <mxGeometry relative="1" as="geometry" />
        </mxCell>
        <mxCell id="DRDCxY-t06iBHeeWm9um-19" value="edit medical card" style="shape=rhombus;perimeter=rhombusPerimeter;whiteSpace=wrap;html=1;align=center;fontFamily=Helvetica;" vertex="1" parent="1">
          <mxGeometry x="470" y="-710" width="120" height="60" as="geometry" />
        </mxCell>
      </root>
    </mxGraphModel>
  </diagram>
  <diagram id="APaDEmhEkpnveqYnNB5j" name="admin">
    <mxGraphModel dx="1050" dy="1658" grid="1" gridSize="10" guides="1" tooltips="1" connect="1" arrows="1" fold="1" page="1" pageScale="1" pageWidth="850" pageHeight="1100" math="0" shadow="0">
      <root>
        <mxCell id="0" />
        <mxCell id="1" parent="0" />
        <mxCell id="67MFpjZmOLHWfiW4-oJ1-1" style="edgeStyle=orthogonalEdgeStyle;rounded=0;orthogonalLoop=1;jettySize=auto;html=1;exitX=0.5;exitY=0;exitDx=0;exitDy=0;entryX=0.608;entryY=1.065;entryDx=0;entryDy=0;entryPerimeter=0;fontFamily=Helvetica;" edge="1" parent="1" source="67MFpjZmOLHWfiW4-oJ1-5" target="67MFpjZmOLHWfiW4-oJ1-11">
          <mxGeometry relative="1" as="geometry" />
        </mxCell>
        <mxCell id="67MFpjZmOLHWfiW4-oJ1-2" style="edgeStyle=orthogonalEdgeStyle;rounded=0;orthogonalLoop=1;jettySize=auto;html=1;exitX=1;exitY=0.25;exitDx=0;exitDy=0;entryX=0;entryY=0.5;entryDx=0;entryDy=0;fontFamily=Helvetica;" edge="1" parent="1" source="67MFpjZmOLHWfiW4-oJ1-5" target="67MFpjZmOLHWfiW4-oJ1-13">
          <mxGeometry relative="1" as="geometry" />
        </mxCell>
        <mxCell id="67MFpjZmOLHWfiW4-oJ1-3" style="edgeStyle=orthogonalEdgeStyle;rounded=0;orthogonalLoop=1;jettySize=auto;html=1;exitX=0.5;exitY=1;exitDx=0;exitDy=0;fontFamily=Helvetica;" edge="1" parent="1" source="67MFpjZmOLHWfiW4-oJ1-5" target="67MFpjZmOLHWfiW4-oJ1-12">
          <mxGeometry relative="1" as="geometry" />
        </mxCell>
        <mxCell id="67MFpjZmOLHWfiW4-oJ1-4" style="edgeStyle=orthogonalEdgeStyle;rounded=0;orthogonalLoop=1;jettySize=auto;html=1;exitX=0;exitY=1;exitDx=0;exitDy=0;entryX=0.5;entryY=0;entryDx=0;entryDy=0;fontFamily=Helvetica;" edge="1" parent="1" source="67MFpjZmOLHWfiW4-oJ1-5" target="67MFpjZmOLHWfiW4-oJ1-19">
          <mxGeometry relative="1" as="geometry" />
        </mxCell>
        <mxCell id="67MFpjZmOLHWfiW4-oJ1-5" value="System" style="whiteSpace=wrap;html=1;align=center;fontFamily=Helvetica;" vertex="1" parent="1">
          <mxGeometry x="400" y="-850" width="170" height="100" as="geometry" />
        </mxCell>
        <mxCell id="67MFpjZmOLHWfiW4-oJ1-6" style="edgeStyle=orthogonalEdgeStyle;rounded=0;orthogonalLoop=1;jettySize=auto;html=1;exitX=0.75;exitY=0;exitDx=0;exitDy=0;entryX=0.5;entryY=1;entryDx=0;entryDy=0;fontFamily=Helvetica;" edge="1" parent="1" source="67MFpjZmOLHWfiW4-oJ1-10" target="67MFpjZmOLHWfiW4-oJ1-14">
          <mxGeometry relative="1" as="geometry" />
        </mxCell>
        <mxCell id="67MFpjZmOLHWfiW4-oJ1-7" style="edgeStyle=orthogonalEdgeStyle;rounded=0;orthogonalLoop=1;jettySize=auto;html=1;exitX=0;exitY=0;exitDx=0;exitDy=0;entryX=1;entryY=1;entryDx=0;entryDy=0;fontFamily=Helvetica;" edge="1" parent="1" source="67MFpjZmOLHWfiW4-oJ1-10" target="67MFpjZmOLHWfiW4-oJ1-15">
          <mxGeometry relative="1" as="geometry" />
        </mxCell>
        <mxCell id="67MFpjZmOLHWfiW4-oJ1-8" style="edgeStyle=orthogonalEdgeStyle;rounded=0;orthogonalLoop=1;jettySize=auto;html=1;exitX=0;exitY=1;exitDx=0;exitDy=0;entryX=0.988;entryY=0.3;entryDx=0;entryDy=0;entryPerimeter=0;fontFamily=Helvetica;" edge="1" parent="1" source="67MFpjZmOLHWfiW4-oJ1-10" target="67MFpjZmOLHWfiW4-oJ1-16">
          <mxGeometry relative="1" as="geometry" />
        </mxCell>
        <mxCell id="67MFpjZmOLHWfiW4-oJ1-9" style="edgeStyle=orthogonalEdgeStyle;rounded=0;orthogonalLoop=1;jettySize=auto;html=1;exitX=0.5;exitY=1;exitDx=0;exitDy=0;entryX=0.419;entryY=0.021;entryDx=0;entryDy=0;entryPerimeter=0;fontFamily=Helvetica;" edge="1" parent="1" source="67MFpjZmOLHWfiW4-oJ1-10" target="67MFpjZmOLHWfiW4-oJ1-17">
          <mxGeometry relative="1" as="geometry" />
        </mxCell>
        <mxCell id="67MFpjZmOLHWfiW4-oJ1-10" value="Admin" style="whiteSpace=wrap;html=1;align=center;fontFamily=Helvetica;" vertex="1" parent="1">
          <mxGeometry x="150" y="-590" width="100" height="40" as="geometry" />
        </mxCell>
        <mxCell id="67MFpjZmOLHWfiW4-oJ1-11" value="visits" style="ellipse;whiteSpace=wrap;html=1;align=center;fontFamily=Helvetica;" vertex="1" parent="1">
          <mxGeometry x="420" y="-920" width="100" height="40" as="geometry" />
        </mxCell>
        <mxCell id="67MFpjZmOLHWfiW4-oJ1-12" value="Operations" style="ellipse;whiteSpace=wrap;html=1;align=center;fontFamily=Helvetica;" vertex="1" parent="1">
          <mxGeometry x="435" y="-710" width="100" height="40" as="geometry" />
        </mxCell>
        <mxCell id="67MFpjZmOLHWfiW4-oJ1-13" value="Medical Card" style="ellipse;whiteSpace=wrap;html=1;align=center;fontFamily=Helvetica;" vertex="1" parent="1">
          <mxGeometry x="590" y="-860" width="100" height="40" as="geometry" />
        </mxCell>
        <mxCell id="67MFpjZmOLHWfiW4-oJ1-14" value="Name" style="ellipse;whiteSpace=wrap;html=1;align=center;fontFamily=Helvetica;" vertex="1" parent="1">
          <mxGeometry x="157.5" y="-660" width="100" height="40" as="geometry" />
        </mxCell>
        <mxCell id="67MFpjZmOLHWfiW4-oJ1-15" value="Gender" style="ellipse;whiteSpace=wrap;html=1;align=center;fontFamily=Helvetica;" vertex="1" parent="1">
          <mxGeometry x="45" y="-640" width="100" height="40" as="geometry" />
        </mxCell>
        <mxCell id="67MFpjZmOLHWfiW4-oJ1-16" value="Age" style="ellipse;whiteSpace=wrap;html=1;align=center;fontFamily=Helvetica;" vertex="1" parent="1">
          <mxGeometry x="30" y="-530" width="100" height="40" as="geometry" />
        </mxCell>
        <mxCell id="67MFpjZmOLHWfiW4-oJ1-17" value="Employee_ID" style="ellipse;whiteSpace=wrap;html=1;align=center;fontStyle=4;fontFamily=Helvetica;" vertex="1" parent="1">
          <mxGeometry x="157.5" y="-530" width="100" height="40" as="geometry" />
        </mxCell>
        <mxCell id="67MFpjZmOLHWfiW4-oJ1-18" style="edgeStyle=orthogonalEdgeStyle;rounded=0;orthogonalLoop=1;jettySize=auto;html=1;exitX=0.5;exitY=1;exitDx=0;exitDy=0;entryX=1;entryY=0.75;entryDx=0;entryDy=0;fontFamily=Helvetica;" edge="1" parent="1" source="67MFpjZmOLHWfiW4-oJ1-19" target="67MFpjZmOLHWfiW4-oJ1-10">
          <mxGeometry relative="1" as="geometry" />
        </mxCell>
        <mxCell id="67MFpjZmOLHWfiW4-oJ1-19" value="edits&amp;nbsp;" style="shape=rhombus;perimeter=rhombusPerimeter;whiteSpace=wrap;html=1;align=center;fontFamily=Helvetica;" vertex="1" parent="1">
          <mxGeometry x="300" y="-650" width="120" height="60" as="geometry" />
        </mxCell>
      </root>
    </mxGraphModel>
  </diagram>
</mxfile>
